<svg fill="#fff" viewBox="0 0 24 24" xmlns="http://www.w3.org/2000/svg"><path d="m21.634 4.031c-.815.385-2.202 1.107-2.899 1.245-.027.007-.049.016-.075.023-.813-.802-1.927-1.299-3.16-1.299-2.485 0-4.5 2.015-4.5 4.5 0 .131-.011.372 0 .5-3.218 0-5.568-1.679-7.327-3.837-.235-.29-.485-.139-.537.067-.117.466-.157 1.245-.157 1.801 0 1.401 1.095 2.777 2.8 3.63-.314.081-.66.139-1.02.139-.424 0-.912-.111-1.339-.335-.158-.083-.499-.06-.398.344.405 1.619 2.253 2.756 3.904 3.087-.375.221-1.175.176-1.543.176-.136 0-.609-.032-.915-.07-.279-.034-.708.038-.349.582.771 1.167 2.515 1.9 4.016 1.928-1.382 1.084-3.642 1.48-5.807 1.48-.438-.01-.416.489-.063.674 1.597.838 4.213 1.334 6.082 1.334 7.43 0 11.653-5.663 11.653-11.001 0-.086-.002-.266-.005-.447 0-.018.005-.035.005-.053 0-.027-.008-.053-.008-.08-.003-.136-.006-.263-.009-.329.589-.425 1.491-1.163 1.947-1.728.155-.192.03-.425-.181-.352-.543.189-1.482.555-2.07.625 1.177-.779 1.759-1.457 2.259-2.21.171-.257-.043-.518-.304-.394z" fill="#fff"/></svg>