<svg height="100" viewBox="0 0 100 100" width="100" xmlns="http://www.w3.org/2000/svg"><g fill="none" fill-rule="nonzero"><g fill="#6a1b9a"><path d="m70.805 12.605c-.525 1.2775-1.9875 1.8875-3.265 1.36l-4.625-1.905c-1.2775-.5275-1.885-1.9875-1.36-3.2625.5275-1.2775 1.9875-1.8875 3.265-1.3625l4.625 1.905c1.2775.5275 1.885 1.9875 1.36 3.265z"/><path d="m61.3023117 10.2334519h5v12.5h-5z" transform="matrix(.9246657 .3807799 -.3807799 .9246657 11.083069 -23.052869)"/><path d="m38.4425 91.2c.525-1.275-.0825-2.7375-1.3625-3.2625l-4.6225-1.905c-1.28-.5275-2.74.0825-3.265 1.36-.525 1.2775.0825 2.7375 1.36 3.265l4.625 1.905c1.2775.525 2.7375-.085 3.265-1.3625z"/><path d="m33.6948346 77.2659848h5v12.5h-5z" transform="matrix(.92479857 .38045711 -.38045711 .92479857 34.496154 -7.49006)"/><path d="m12.605 29.195c1.2775.525 1.8875 1.9875 1.36 3.265l-1.905 4.6225c-.525 1.28-1.9875 1.885-3.265 1.3625-1.275-.5275-1.885-1.9875-1.36-3.2675l1.905-4.6225c.5275-1.2775 1.99-1.885 3.265-1.36z"/><path d="m13.9811558 29.944226h5v12.5025h-5z" transform="matrix(.3807799 -.9246657 .9246657 .3807799 -23.263252 37.652526)"/><path d="m91.2 61.5575c-1.275-.5225-2.7375.0825-3.2625 1.3625l-1.905 4.6225c-.5275 1.2775.0825 2.74 1.36 3.265 1.275.525 2.7375-.0825 3.265-1.36l1.905-4.625c.525-1.2775-.085-2.7375-1.3625-3.265z"/><path d="m81.0246327 57.5544197h4.9975v12.5h-4.9975z" transform="matrix(.38100583 -.92457264 .92457264 .38100583 -7.291334 116.717998)"/><path d="m8.8475 61.7275c1.2725-.53 2.7375.0675 3.27 1.345l1.9225 4.6175c.5325 1.275-.0725 2.74-1.345 3.2725-1.275.5275-2.7375-.0725-3.27-1.3475l-1.925-4.615c-.5325-1.28.0725-2.74 1.3475-3.2725z"/><path d="m14.0442429 57.6882552h4.9975v12.5h-4.9975z" transform="matrix(-.384392 -.92316997 .92316997 -.384392 -36.12389 103.787603)"/><path d="m87.3075 29.0375c-1.2725.5325-1.8775 1.9925-1.345 3.2675l1.925 4.6175c.5325 1.2775 1.995 1.8775 3.27 1.345 1.2725-.5275 1.8775-1.9925 1.3475-3.2675l-1.9275-4.6175c-.53-1.2725-1.9925-1.8775-3.27-1.345z"/><path d="m80.9582686 29.8038464h5.0025v12.5h-5.0025z" transform="matrix(-.38510083 -.9228745 .9228745 -.38510083 82.326674 126.960874)"/><path d="m38.2725 8.845c.53 1.275-.07 2.7375-1.345 3.27l-4.6175 1.925c-1.275.53-2.74-.0725-3.27-1.3475-.53-1.275.07-2.74 1.345-3.27l4.6175-1.9225c1.2775-.5325 2.74.07 3.27 1.345z"/><path d="m33.5592305 10.2861545h5v12.5h-5z" transform="matrix(.92300216 -.38479477 .38479477 .92300216 -3.586543 15.148652)"/><path d="m70.965 87.305c-.535-1.27-1.995-1.875-3.27-1.345l-4.615 1.9225c-1.28.5375-1.88 2-1.35 3.2775.5325 1.2675 1.995 1.8725 3.27 1.34l4.6175-1.925c1.275-.53 1.8775-1.995 1.3475-3.27z"/><path d="m61.4424044 77.2095229h5.005v12.5025h-5.005z" transform="matrix(.92280055 -.385278 .385278 .92280055 -27.219089 31.07969)"/></g><g fill="#9c27b0"><path d="m55 2.5c0 1.38-1.1175 2.5-2.5 2.5h-5c-1.3825 0-2.5-1.12-2.5-2.5 0-1.38 1.1175-2.5 2.5-2.5h5c1.3825 0 2.5 1.12 2.5 2.5z"/><path d="m47.5 2.5h5v12.5h-5zm7.5 95c0-1.38-1.1175-2.5-2.5-2.5h-5c-1.3825 0-2.5 1.12-2.5 2.5 0 1.38 1.1175 2.5 2.5 2.5h5c1.3825 0 2.5-1.12 2.5-2.5z"/><path d="m47.5 85h5v12.5h-5zm-45-40c1.38 0 2.5 1.1175 2.5 2.5v5c0 1.3825-1.12 2.5-2.5 2.5-1.38 0-2.5-1.1175-2.5-2.5v-5c0-1.3825 1.12-2.5 2.5-2.5z"/><path d="m2.5 47.5h12.5v5h-12.5zm95-2.5c-1.38 0-2.5 1.1175-2.5 2.5v5c0 1.3825 1.12 2.5 2.5 2.5 1.38 0 2.5-1.1175 2.5-2.5v-5c0-1.3825-1.12-2.5-2.5-2.5z"/><path d="m85 47.5h12.5v5h-12.5zm-72.125 32.5525c.9775-.975 2.5575-.9775 3.5375 0l3.535 3.535c.9775.9775.975 2.56 0 3.535-.9775.9775-2.5575.98-3.535 0l-3.5375-3.535c-.975-.9775-.9725-2.56 0-3.535z"/><path d="m18.3316161 72.9196339h5v12.4975h-5z" transform="matrix(-.70709444 -.70711912 .70711912 -.70709444 -20.419942 149.878342)"/><path d="m80.0525 12.875c-.975.9775-.9775 2.5575 0 3.535l3.5375 3.535c.9775.98 2.5575.9775 3.535 0 .975-.975.9775-2.5575 0-3.535l-3.535-3.535c-.98-.975-2.5625-.9725-3.5375 0z"/><path d="m76.6588949 14.5743826h5v12.5025h-5z" transform="matrix(-.70735356 -.70685991 .70685991 -.70735356 120.431416 91.510968)"/><path d="m80.0525 87.125c-.975-.9775-.9775-2.5575 0-3.5375l3.535-3.535c.9775-.9775 2.56-.975 3.535 0 .9775.9775.98 2.5575 0 3.535l-3.535 3.5375c-.9775.975-2.56.9725-3.535 0z"/><path d="m76.6683839 72.9196339h5v12.4975h-5z" transform="matrix(-.70709444 .70711912 -.70711912 -.70709444 191.129386 79.16643)"/><path d="m12.875 19.9475c.9775.975 2.5575.9775 3.535 0l3.535-3.5375c.98-.9775.9775-2.5575 0-3.535-.975-.975-2.5575-.9775-3.535 0l-3.535 3.535c-.975.98-.9725 2.5625 0 3.5375z"/><path d="m18.3271029 14.577463h5v12.5025h-5z" transform="matrix(-.70685991 .70735356 -.70735356 -.70685991 50.282212 20.81957)"/></g><path d="m50 12.5c-20.7106781 0-37.5 16.7893219-37.5 37.5s16.7893219 37.5 37.5 37.5 37.5-16.7893219 37.5-37.5-16.7893219-37.5-37.5-37.5z" fill="#8bc34a"/><path d="m50 17.5c17.92 0 32.5 14.58 32.5 32.5s-14.58 32.5-32.5 32.5-32.5-14.58-32.5-32.5 14.58-32.5 32.5-32.5m0-5c-20.71 0-37.5 16.79-37.5 37.5s16.79 37.5 37.5 37.5 37.5-16.79 37.5-37.5-16.79-37.5-37.5-37.5z" fill="#689f38"/><path d="m42.35 76.3075c-.255 0-.5125-.04-.77-.1225l-.5125-.17c-1.3075-.445-2.005-1.865-1.56-3.175.445-1.305 1.8675-2.01 3.1725-1.5575l.4375.1475c1.3125.4225 2.035 1.8325 1.61 3.1475-.34 1.0575-1.32 1.73-2.3775 1.73zm19.78-1.94c-.8775 0-1.725-.4625-2.185-1.28-.675-1.205-.2425-2.73.9625-3.4025l.405-.23c1.1975-.69 2.7275-.2775 3.4125.9175.69 1.1975.2775 2.725-.9175 3.4125l-.46.2625c-.385.2175-.805.32-1.2175.32zm-10.7775 2.905c-.8175-.3175-1.4425-1.055-1.5725-1.9825-.1925-1.37.7625-2.6325 2.13-2.825l.46-.065c1.3675-.2125 2.645.7275 2.85 2.0925.21 1.365-.7275 2.64-2.0925 2.8475l-.5225.08c-.44.06-.87.005-1.2525-.1475zm-18.0175-6.1375c-.5925 0-1.185-.21-1.6625-.6325l-.4175-.3825c-1.005-.945-1.055-2.5275-.1075-3.5325.9425-1.01 2.5275-1.0575 3.535-.11l.3175.29c1.03.92 1.1225 2.5.2025 3.53-.495.555-1.18.8375-1.8675.8375zm36.63-3.5875c-.5275 0-1.0575-.165-1.51-.5075-1.1-.835-1.315-2.405-.48-3.5025l.265-.36c.81-1.1175 2.37-1.3625 3.49-.5525 1.1175.81 1.365 2.375.5525 3.49l-.325.4425c-.49.65-1.2375.99-1.9925.99zm-42.77-4.79c-.9525 0-1.8625-.5475-2.28-1.4725l-.22-.5c-.5425-1.27.0475-2.7375 1.315-3.2825 1.275-.54 2.74.05 3.2825 1.3175l.1775.4075c.57 1.2575.01 2.7375-1.25 3.305-.3325.1525-.68.225-1.025.225zm47.17-4.625c-.1825 0-.37-.02-.5575-.06-1.345-.3075-2.19-1.645-1.885-2.9925l.1-.4425c.28-1.35 1.6075-2.2275 2.9575-1.935 1.3525.28 2.22 1.6075 1.935 2.9575l-.115.53c-.2625 1.155-1.295 1.9425-2.435 1.9425zm-49.365-5.58c-1.38 0-2.5-1.0675-2.5-2.4475l.005-.655c.03-1.38 1.135-2.46 2.5525-2.445 1.38.03 2.475 1.175 2.445 2.555l-.0025.44c0 1.38-1.12 2.5525-2.5 2.5525zm49.545-4.8075c-1.175 0-2.22-.83-2.45-2.025l-.0925-.45c-.285-1.3525.58-2.6775 1.93-2.9625 1.345-.2825 2.675.58 2.9625 1.93l.1075.5275c.2625 1.355-.6225 2.6675-1.9775 2.93-.1625.035-.32.05-.48.05zm-47.395-5.4075c-.3425 0-.6875-.07-1.02-.22-1.26-.565-1.8225-2.0425-1.26-3.3025l.22-.4825c.58-1.255 2.0675-1.795 3.32-1.2175 1.2525.58 1.7975 2.0675 1.2175 3.32l-.195.425c-.415.9275-1.3275 1.4775-2.2825 1.4775zm43.345-4.16c-.785 0-1.56-.37-2.0475-1.0625l-.265-.37c-.8125-1.1175-.5675-2.68.5525-3.4925 1.1175-.8125 2.68-.565 3.49.55l.315.44c.7925 1.13.52 2.6875-.6075 3.4825-.4375.305-.9425.4525-1.4375.4525zm-37.23-4.2475c-.6825 0-1.365-.2775-1.86-.8275-.925-1.025-.84-2.605.185-3.5325l.4125-.365c1.045-.9 2.6275-.785 3.5275.2575.9025 1.045.7875 2.6225-.2575 3.5275l-.335.295c-.48.4325-1.0775.645-1.6725.645zm29.635-2.8475c-.445 0-.895-.1175-1.3025-.3675l-.37-.22c-1.1975-.6875-1.61-2.2175-.9175-3.415.6875-1.195 2.215-1.6075 3.4125-.9175l.4875.2875c1.1775.7225 1.5475 2.26.825 3.4375-.4725.77-1.2925 1.195-2.135 1.195zm-20.645-2.3575c-1.0525 0-2.0325-.6725-2.3775-1.7275-.4275-1.3125.29-2.7225 1.6025-3.15l.52-.165c1.32-.4025 2.7175.34 3.1225 1.6625.4025 1.32-.34 2.7175-1.6625 3.1225l-.4325.135c-.2575.0825-.5175.1225-.7725.1225zm10.83-1.0375c-.105 0-.21-.005-.3175-.02l-.4375-.05c-1.3725-.1425-2.3725-1.37-2.23-2.7425.14-1.3725 1.3575-2.3925 2.7425-2.23l.555.0625c1.37.175 2.34 1.425 2.165 2.795-.16 1.2625-1.2375 2.185-2.4775 2.185zm-5.555 39.61c-.135 0-.27-.01-.4075-.035-.2-.0325-.4-.0675-.6-.11-1.3525-.2825-2.215-1.6125-1.93-2.9625s1.61-2.215 2.9625-1.93l.38.07c1.3625.2225 2.285 1.51 2.0625 2.87-.205 1.2275-1.265 2.0975-2.4675 2.0975zm9.6375-1.6175c-.8825 0-1.7375-.4675-2.1925-1.2975-.6675-1.2075-.225-2.73.9875-3.3925l.37-.21c1.195-.705 2.725-.3 3.42.89.6975 1.1925.3 2.7225-.89 3.42l-.4925.2775c-.3825.2125-.795.3125-1.2025.3125zm-18.5575-3.4225c-.71 0-1.415-.3-1.91-.885l-.36-.4325c-.8625-1.08-.69-2.6525.3875-3.515 1.075-.8625 2.6475-.6925 3.515.385l.275.335c.8925 1.0525.76 2.63-.2925 3.5225-.4725.395-1.045.59-1.615.59zm25.345-4.25c-.3075 0-.62-.055-.9225-.175-1.2825-.51-1.91-1.9625-1.4025-3.2475l.1475-.3875c.4675-1.3025 1.9025-1.9775 3.1975-1.51 1.3025.47 1.975 1.9 1.51 3.1975l-.205.545c-.3925.98-1.3325 1.5775-2.325 1.5775zm-28.9575-5.42c-1.355 0-2.4675-1-2.4975-2.36 0-.0175 0-.2075 0-.2275l.01-.59c.0525-1.38 1.205-2.4375 2.59-2.4075 1.38.0525 2.4575 1.21 2.4075 2.59l-.0075.4075c0 1.37-1.1025 2.57-2.4725 2.585-.01 0-.02.0025-.03.0025zm29.24-4.82c-1.0575 0-2.035-.675-2.3775-1.7325l-.1275-.355c-.4875-1.2925.1625-2.735 1.455-3.2225 1.2875-.4875 2.735.1625 3.2225 1.455.0725.1925.1425.3875.205.585.425 1.315-.295 2.7225-1.61 3.1475-.255.0825-.5125.1225-.7675.1225zm-25.7425-4.895c-.5675 0-1.135-.19-1.6025-.5825-1.06-.885-1.2-2.4625-.3125-3.5225l.385-.445c.925-1.0275 2.5025-1.1075 3.5325-.185 1.025.925 1.1075 2.505.185 3.5325l-.265.3075c-.4975.59-1.2075.895-1.9225.895zm19.38-3.1375c-.445 0-.895-.1175-1.3025-.3675l-.3675-.2225c-1.1975-.6875-1.61-2.2175-.9175-3.415.685-1.195 2.2175-1.6075 3.4125-.9175l.485.2875c1.1775.7225 1.5475 2.26.825 3.4375-.4725.7725-1.2925 1.1975-2.135 1.1975zm-10.52-2.0025c-1.1875 0-2.24-.8475-2.4575-2.055-.245-1.3575.6575-2.66 2.015-2.905l.59-.095c1.3575-.1975 2.63.76 2.82 2.13.1925 1.3675-.7625 2.63-2.13 2.82l-.3925.0625c-.1475.03-.3.0425-.445.0425z" fill="#558b2f"/></g></svg>